PathFileType	4	(X/Y/Z)	./resultDataOpenSim/trcMotMarkerGrf/sub09/qtm-04-01.trc
DataRate	CameraRate	NumFrames	NumMarkers	Units	OrigDataRate	OrigDataStartFrame	OrigNumFrames
250.000000	250.000000	7	24	m	250.000000	254	506
Frame#	Time	L.Toe.Tip			R.Toe.Tip			L.Ankle.Lat			R.Ankle.Lat			L.Ankle.Med			R.Ankle.Med			L.Heel			R.Heel			L.Knee.Lat			R.Knee.Lat			L.Knee.Med			R.Knee.Med			L.Thigh.Upper			R.Thigh.Upper			L.ASIS			R.ASIS			V.Sacral			L.Acromium			R.Acromium			C7			L.Elbow			R.Elbow			L.Wrist.Lat			R.Wrist.Lat
		X1	Y1	Z1	X2	Y2	Z2	X3	Y3	Z3	X4	Y4	Z4	X5	Y5	Z5	X6	Y6	Z6	X7	Y7	Z7	X8	Y8	Z8	X9	Y9	Z9	X10	Y10	Z10	X11	Y11	Z11	X12	Y12	Z12	X13	Y13	Z13	X14	Y14	Z14	X15	Y15	Z15	X16	Y16	Z16	X17	Y17	Z17	X18	Y18	Z18	X19	Y19	Z19	X20	Y20	Z20	X21	Y21	Z21	X22	Y22	Z22	X23	Y23	Z23	X24	Y24	Z24

254	1.012	0.19814177	-0.033679625	0.03795938	0.50927341	0.10150251	0.15473537	0.0516945	0.020431242	0.0015125652	0.36677766	0.12702872	0.17994586	0.081100231	0.038080653	0.09425431	0.38662307	0.15937933	0.086791049	-0.018628365	-0.0018447671	0.049768146	0.29794506	0.10666158	0.12801217	0.15726487	0.4227795	-0.063980505	0.51678667	0.54479633	0.21454382	0.16596879	0.42383646	0.061450045	0.51747056	0.5333144	0.088521248	0.22921196	0.84041738	-0.12008531	0.25445842	0.85272517	0.25046468	0.33264641	0.91511873	-0.060935128	0.32830009	0.93214903	0.17486418	0.17126833	0.98627926	0.05254407	0.35420416	1.3764958	-0.098013929	0.31097921	1.3877897	0.22934035	0.26447435	1.4334748	0.057662233	0.23585217	1.0189162	-0.17700241	0.14889444	1.0643948	0.30852968	0.47347951	0.88396732	-0.15239661	0.25419002	0.81410022	0.33987486
255	1.016	0.19823066	-0.033657635	0.037807809	0.52925552	0.10126153	0.154302	0.051613696	0.021163547	0.0023467068	0.38559483	0.12309291	0.17915458	0.081771637	0.038692683	0.094818314	0.40514296	0.15610604	0.086082447	-0.018352344	-0.0009143712	0.051074767	0.31788369	0.10101643	0.12683623	0.15759939	0.42333655	-0.063818615	0.52263761	0.5448662	0.2142893	0.16611358	0.42454788	0.061764488	0.52481589	0.53415916	0.088725014	0.23377111	0.84009607	-0.11977426	0.26030888	0.85247719	0.25073129	0.33763518	0.91462219	-0.061629427	0.33419316	0.93158499	0.1747893	0.17668955	0.98593282	0.052791558	0.36017802	1.3759725	-0.09805379	0.31759808	1.3872373	0.22939543	0.27077196	1.4329267	0.057798223	0.24258393	1.0179283	-0.1766306	0.15523312	1.0641393	0.30869707	0.48149602	0.88531828	-0.15143809	0.25962715	0.81357008	0.34015495
256	1.02	0.1983035	-0.033649668	0.037695239	0.54912523	0.10111944	0.15402192	0.051558656	0.021895261	0.003144537	0.40447268	0.11932901	0.17836245	0.082435165	0.039289994	0.095362439	0.42376163	0.15292336	0.085359964	-0.01807831	1.3056241e-05	0.052330183	0.33792667	0.095564599	0.12560576	0.15806682	0.423857	-0.063644095	0.5283946	0.54485419	0.21449237	0.16621147	0.42553754	0.061875241	0.53204969	0.53478363	0.088949694	0.23830712	0.83971212	-0.11940824	0.26613031	0.85215112	0.25101128	0.3426362	0.91406422	-0.062291306	0.34011264	0.93094644	0.17474162	0.1821224	0.9855372	0.053071015	0.36615974	1.3753961	-0.098094871	0.32422609	1.3866178	0.22944985	0.27707438	1.4323204	0.057937014	0.24937849	1.0169041	-0.17625401	0.16171838	1.0638043	0.30889308	0.48946983	0.88657877	-0.15047893	0.2651327	0.81296743	0.34043164
257	1.024	0.19834582	-0.033651759	0.03763102	0.56889413	0.101078	0.15389826	0.051524842	0.022622584	0.0038972179	0.42347722	0.11572904	0.17754555	0.083076543	0.039869933	0.095878528	0.44250189	0.14983476	0.084597939	-0.017810883	0.00093539735	0.053507793	0.35804805	0.090321226	0.12433068	0.15870636	0.42434448	-0.063462433	0.53432513	0.54484329	0.21473201	0.16675505	0.42658176	0.061762789	0.53917804	0.53518774	0.089198158	0.24282839	0.83926397	-0.11899353	0.2719296	0.85175617	0.25130513	0.34765062	0.9134436	-0.062916682	0.34606414	0.93023029	0.17471284	0.18756795	0.98509309	0.053384998	0.37216017	1.3747653	-0.098135526	0.3308728	1.3859316	0.22950885	0.28338483	1.4316605	0.058086952	0.25617252	1.0158213	-0.17585503	0.16833369	1.0633818	0.30913305	0.49740092	0.88774466	-0.14951816	0.27070641	0.8122919	0.34070489
258	1.028	0.19836182	-0.033659914	0.037600712	0.58858227	0.10113457	0.15391345	0.051503611	0.023340758	0.0046093865	0.44255884	0.11230352	0.17670993	0.083689229	0.040423798	0.09635972	0.46134457	0.14686041	0.083802541	-0.017551689	0.0018523881	0.054592201	0.37820607	0.085295066	0.1230208	0.15953499	0.42480349	-0.063278242	0.54039761	0.54485284	0.21488034	0.16800306	0.42732034	0.061614125	0.54623002	0.53537528	0.089454489	0.24734638	0.83874556	-0.11854176	0.27771027	0.85129543	0.25160653	0.35267962	0.91275912	-0.063501515	0.35204977	0.92943313	0.1746929	0.19302731	0.9846012	0.053736022	0.3781882	1.3740791	-0.098174836	0.33753415	1.3851767	0.22956979	0.28970949	1.4309472	0.058249258	0.26292661	1.0146718	-0.17542449	0.17504324	1.0628639	0.30941306	0.50529091	0.88881318	-0.14855572	0.27634851	0.81154589	0.34097799
259	1.032	0.19836305	-0.033671289	0.037585598	0.60821732	0.10129314	0.15403002	0.051491285	0.024043577	0.0052896917	0.46165992	0.10907355	0.17587568	0.084277255	0.040943703	0.096807908	0.48024726	0.14403259	0.083004998	-0.017298102	0.0027591293	0.055580346	0.39836066	0.080484668	0.12168063	0.16053829	0.42522646	-0.063091236	0.54651681	0.54487407	0.21495765	0.16979831	0.42758625	0.061638821	0.55327263	0.53535772	0.089667663	0.25189153	0.83816143	-0.11810378	0.28346717	0.8507603	0.25190892	0.35772434	0.91200956	-0.064041884	0.35806871	0.9285568	0.17467608	0.1985016	0.98406223	0.054126513	0.38424724	1.3733396	-0.098212341	0.34418573	1.3843507	0.22962502	0.29605295	1.4301731	0.058412983	0.26964817	1.01346	-0.17496893	0.18177551	1.0622454	0.30971974	0.51313997	0.88978399	-0.14759203	0.28205968	0.81073556	0.34125447
260	1.036	0.19835823	-0.033683971	0.037578033	0.62783139	0.10156942	0.15420637	0.051496719	0.024722464	0.0059332623	0.48075317	0.10605092	0.17505966	0.084845943	0.041429615	0.097225892	0.49916424	0.14137884	0.082238783	-0.017048502	0.0036497686	0.056466846	0.41849987	0.075884072	0.12031105	0.16169278	0.42559691	-0.062897804	0.55261199	0.54489712	0.21501045	0.17182526	0.42751904	0.061855826	0.56037889	0.5351557	0.089770178	0.25650585	0.83752687	-0.1177488	0.28920942	0.85014779	0.25221599	0.36278588	0.91119383	-0.064534006	0.36412076	0.92760632	0.17466036	0.20399191	0.98347686	0.054558884	0.39033411	1.3725483	-0.098248708	0.35080868	1.3834549	0.22967371	0.3024138	1.4293298	0.058565303	0.27636253	1.0121933	-0.17449716	0.18845928	1.0615417	0.31004539	0.5209438	0.89065682	-0.14662883	0.28784027	0.80986643	0.34153595
